<svg width="42" height="43" viewBox="0 0 42 43" fill="none" xmlns="http://www.w3.org/2000/svg">
<path fill-rule="evenodd" clip-rule="evenodd" d="M9 0.806427C4.02944 0.806427 0 4.83586 0 9.80642V32.9954C0 33.6111 0.06183 34.2124 0.17962 34.7933L18.9079 5.89054C19.6983 4.67079 21.4846 4.67473 22.2695 5.89794L40.9598 35.0221C41.1097 34.3707 41.1889 33.6923 41.1889 32.9954V9.80643C41.1889 4.83586 37.1595 0.806427 32.1889 0.806427H9Z" fill="#016AA2"/>
<path fill-rule="evenodd" clip-rule="evenodd" d="M22.1661 13.8803C21.3901 12.6427 19.5921 12.6275 18.7953 13.8518L2.16821 39.4008C1.52349 40.3915 1.88819 41.6206 2.77187 42.1838C2.90745 42.0256 3.07433 41.8823 3.27437 41.7606L18.9647 32.2139C19.6095 31.8216 20.4204 31.8257 21.0612 32.2246L36.3976 41.7713C36.682 41.9483 36.8982 42.1691 37.0517 42.414C38.2749 42.0631 38.9151 40.5939 38.1849 39.4293L22.1661 13.8803Z" fill="#393939"/>
</svg>
